<mxfile host="app.diagrams.net" modified="2023-04-25T17:39:31.716Z" agent="Mozilla/5.0 (Windows NT 10.0; Win64; x64) AppleWebKit/537.36 (KHTML, like Gecko) Chrome/112.0.0.0 Safari/537.36" etag="m4NDeGs2uZL6kVIu9jth" version="21.2.1" type="device">
  <diagram name="Страница 1" id="OlgJl-MLiEzsNfL7w2TF">
    <mxGraphModel dx="1467" dy="2461" grid="1" gridSize="10" guides="1" tooltips="1" connect="1" arrows="1" fold="1" page="1" pageScale="1" pageWidth="1169" pageHeight="1654" math="0" shadow="0">
      <root>
        <mxCell id="0" />
        <mxCell id="1" parent="0" />
        <mxCell id="M-MsmWzVihMMCVlR_p8x-1" value="&lt;pre&gt;&lt;font face=&quot;Comic Sans MS&quot; color=&quot;#ffffff&quot;&gt;CUSTOMERS&lt;/font&gt;&lt;/pre&gt;" style="rounded=1;whiteSpace=wrap;html=1;fillColor=#FF756F;strokeColor=#d79b00;" parent="1" vertex="1">
          <mxGeometry x="390" y="260" width="80" height="40" as="geometry" />
        </mxCell>
        <mxCell id="M-MsmWzVihMMCVlR_p8x-3" value="customer&lt;br&gt;_id" style="ellipse;whiteSpace=wrap;html=1;fontFamily=Comic Sans MS;fontColor=#FFFFFF;fillColor=#B266FF;" parent="1" vertex="1">
          <mxGeometry x="480" y="310" width="60" height="30" as="geometry" />
        </mxCell>
        <mxCell id="M-MsmWzVihMMCVlR_p8x-4" value="name" style="ellipse;whiteSpace=wrap;html=1;fontFamily=Comic Sans MS;fontColor=#FFFFFF;fillColor=#B266FF;" parent="1" vertex="1">
          <mxGeometry x="330" y="310" width="60" height="30" as="geometry" />
        </mxCell>
        <mxCell id="M-MsmWzVihMMCVlR_p8x-5" value="email_&lt;br&gt;add" style="ellipse;whiteSpace=wrap;html=1;fontFamily=Comic Sans MS;fontColor=#FFFFFF;fillColor=#B266FF;" parent="1" vertex="1">
          <mxGeometry x="480" y="220" width="60" height="30" as="geometry" />
        </mxCell>
        <mxCell id="M-MsmWzVihMMCVlR_p8x-6" value="address" style="ellipse;whiteSpace=wrap;html=1;fontFamily=Comic Sans MS;fontColor=#FFFFFF;fillColor=#B266FF;" parent="1" vertex="1">
          <mxGeometry x="330" y="220" width="60" height="30" as="geometry" />
        </mxCell>
        <mxCell id="M-MsmWzVihMMCVlR_p8x-7" value="&lt;font color=&quot;#ff0000&quot;&gt;PK&lt;/font&gt;" style="text;html=1;align=center;verticalAlign=middle;resizable=0;points=[];autosize=1;strokeColor=none;fillColor=none;fontFamily=Helvetica;fontColor=#000000;fontStyle=2" parent="1" vertex="1">
          <mxGeometry x="450" y="310" width="40" height="30" as="geometry" />
        </mxCell>
        <mxCell id="M-MsmWzVihMMCVlR_p8x-8" value="" style="endArrow=none;html=1;rounded=0;fontFamily=Comic Sans MS;fontColor=#FFFFFF;strokeColor=#4C0099;exitX=0.75;exitY=0;exitDx=0;exitDy=0;entryX=0;entryY=0.5;entryDx=0;entryDy=0;" parent="1" source="M-MsmWzVihMMCVlR_p8x-1" target="M-MsmWzVihMMCVlR_p8x-5" edge="1">
          <mxGeometry width="50" height="50" relative="1" as="geometry">
            <mxPoint x="440" y="225" as="sourcePoint" />
            <mxPoint x="440" y="160" as="targetPoint" />
          </mxGeometry>
        </mxCell>
        <mxCell id="M-MsmWzVihMMCVlR_p8x-9" value="" style="endArrow=none;html=1;rounded=0;fontFamily=Comic Sans MS;fontColor=#FFFFFF;strokeColor=#4C0099;exitX=0;exitY=0;exitDx=0;exitDy=0;entryX=0.75;entryY=1;entryDx=0;entryDy=0;" parent="1" source="M-MsmWzVihMMCVlR_p8x-3" target="M-MsmWzVihMMCVlR_p8x-1" edge="1">
          <mxGeometry width="50" height="50" relative="1" as="geometry">
            <mxPoint x="469.44" y="405" as="sourcePoint" />
            <mxPoint x="469.44" y="340" as="targetPoint" />
          </mxGeometry>
        </mxCell>
        <mxCell id="M-MsmWzVihMMCVlR_p8x-10" value="" style="endArrow=none;html=1;rounded=0;fontFamily=Comic Sans MS;fontColor=#FFFFFF;strokeColor=#4C0099;exitX=0.25;exitY=0;exitDx=0;exitDy=0;entryX=1;entryY=0.5;entryDx=0;entryDy=0;" parent="1" source="M-MsmWzVihMMCVlR_p8x-1" target="M-MsmWzVihMMCVlR_p8x-6" edge="1">
          <mxGeometry width="50" height="50" relative="1" as="geometry">
            <mxPoint x="420" y="250" as="sourcePoint" />
            <mxPoint x="420" y="185" as="targetPoint" />
          </mxGeometry>
        </mxCell>
        <mxCell id="M-MsmWzVihMMCVlR_p8x-11" value="" style="endArrow=none;html=1;rounded=0;fontFamily=Comic Sans MS;fontColor=#FFFFFF;strokeColor=#4C0099;exitX=1;exitY=0;exitDx=0;exitDy=0;entryX=0.25;entryY=1;entryDx=0;entryDy=0;" parent="1" source="M-MsmWzVihMMCVlR_p8x-4" target="M-MsmWzVihMMCVlR_p8x-1" edge="1">
          <mxGeometry width="50" height="50" relative="1" as="geometry">
            <mxPoint x="410" y="405" as="sourcePoint" />
            <mxPoint x="410" y="340" as="targetPoint" />
          </mxGeometry>
        </mxCell>
        <mxCell id="M-MsmWzVihMMCVlR_p8x-12" value="&lt;pre&gt;&lt;font face=&quot;Comic Sans MS&quot; color=&quot;#ffffff&quot;&gt;ORDER&lt;/font&gt;&lt;/pre&gt;" style="rounded=1;whiteSpace=wrap;html=1;fillColor=#FF756F;strokeColor=#d79b00;" parent="1" vertex="1">
          <mxGeometry x="740" y="260" width="80" height="40" as="geometry" />
        </mxCell>
        <mxCell id="M-MsmWzVihMMCVlR_p8x-13" value="orders" style="rhombus;whiteSpace=wrap;html=1;fontFamily=Comic Sans MS;fontColor=#FFFFFF;fillColor=#009999;" parent="1" vertex="1">
          <mxGeometry x="580" y="260" width="60" height="40" as="geometry" />
        </mxCell>
        <mxCell id="M-MsmWzVihMMCVlR_p8x-14" value="" style="endArrow=none;html=1;rounded=0;fontFamily=Comic Sans MS;fontColor=#FFFFFF;strokeColor=#4C0099;exitX=1;exitY=0.5;exitDx=0;exitDy=0;entryX=0;entryY=0.5;entryDx=0;entryDy=0;" parent="1" source="M-MsmWzVihMMCVlR_p8x-1" target="M-MsmWzVihMMCVlR_p8x-13" edge="1">
          <mxGeometry width="50" height="50" relative="1" as="geometry">
            <mxPoint x="400" y="175" as="sourcePoint" />
            <mxPoint x="400" y="110" as="targetPoint" />
          </mxGeometry>
        </mxCell>
        <mxCell id="M-MsmWzVihMMCVlR_p8x-15" value="" style="endArrow=none;html=1;rounded=0;fontFamily=Comic Sans MS;fontColor=#FFFFFF;strokeColor=#4C0099;exitX=1;exitY=0.5;exitDx=0;exitDy=0;entryX=0;entryY=0.5;entryDx=0;entryDy=0;" parent="1" source="M-MsmWzVihMMCVlR_p8x-13" target="M-MsmWzVihMMCVlR_p8x-12" edge="1">
          <mxGeometry width="50" height="50" relative="1" as="geometry">
            <mxPoint x="610" y="310" as="sourcePoint" />
            <mxPoint x="720" y="310" as="targetPoint" />
          </mxGeometry>
        </mxCell>
        <mxCell id="M-MsmWzVihMMCVlR_p8x-16" value="order_id" style="ellipse;whiteSpace=wrap;html=1;fontFamily=Comic Sans MS;fontColor=#FFFFFF;fillColor=#B266FF;" parent="1" vertex="1">
          <mxGeometry x="850" y="220" width="60" height="30" as="geometry" />
        </mxCell>
        <mxCell id="M-MsmWzVihMMCVlR_p8x-17" value="customer&lt;br&gt;_id" style="ellipse;whiteSpace=wrap;html=1;fontFamily=Comic Sans MS;fontColor=#FFFFFF;fillColor=#B266FF;" parent="1" vertex="1">
          <mxGeometry x="850" y="310" width="60" height="30" as="geometry" />
        </mxCell>
        <mxCell id="M-MsmWzVihMMCVlR_p8x-18" value="date" style="ellipse;whiteSpace=wrap;html=1;fontFamily=Comic Sans MS;fontColor=#FFFFFF;fillColor=#B266FF;" parent="1" vertex="1">
          <mxGeometry x="880" y="265" width="60" height="30" as="geometry" />
        </mxCell>
        <mxCell id="M-MsmWzVihMMCVlR_p8x-19" value="&lt;font color=&quot;#ff0000&quot;&gt;PK&lt;/font&gt;" style="text;html=1;align=center;verticalAlign=middle;resizable=0;points=[];autosize=1;strokeColor=none;fillColor=none;fontFamily=Helvetica;fontColor=#000000;fontStyle=2" parent="1" vertex="1">
          <mxGeometry x="900" y="220" width="40" height="30" as="geometry" />
        </mxCell>
        <mxCell id="M-MsmWzVihMMCVlR_p8x-20" value="FK" style="text;html=1;align=center;verticalAlign=middle;resizable=0;points=[];autosize=1;strokeColor=none;fillColor=none;fontFamily=Helvetica;fontColor=#000000;fontStyle=2" parent="1" vertex="1">
          <mxGeometry x="900" y="310" width="40" height="30" as="geometry" />
        </mxCell>
        <mxCell id="M-MsmWzVihMMCVlR_p8x-21" value="" style="endArrow=none;html=1;rounded=0;fontFamily=Comic Sans MS;fontColor=#FFFFFF;strokeColor=#4C0099;exitX=0.75;exitY=0;exitDx=0;exitDy=0;entryX=0;entryY=0.5;entryDx=0;entryDy=0;" parent="1" source="M-MsmWzVihMMCVlR_p8x-12" target="M-MsmWzVihMMCVlR_p8x-16" edge="1">
          <mxGeometry width="50" height="50" relative="1" as="geometry">
            <mxPoint x="750" y="245" as="sourcePoint" />
            <mxPoint x="750" y="180" as="targetPoint" />
          </mxGeometry>
        </mxCell>
        <mxCell id="M-MsmWzVihMMCVlR_p8x-22" value="" style="endArrow=none;html=1;rounded=0;fontFamily=Comic Sans MS;fontColor=#FFFFFF;strokeColor=#4C0099;exitX=1;exitY=0.5;exitDx=0;exitDy=0;entryX=0;entryY=0.5;entryDx=0;entryDy=0;" parent="1" source="M-MsmWzVihMMCVlR_p8x-12" target="M-MsmWzVihMMCVlR_p8x-18" edge="1">
          <mxGeometry width="50" height="50" relative="1" as="geometry">
            <mxPoint x="810" y="270" as="sourcePoint" />
            <mxPoint x="860" y="245" as="targetPoint" />
          </mxGeometry>
        </mxCell>
        <mxCell id="M-MsmWzVihMMCVlR_p8x-23" value="" style="endArrow=none;html=1;rounded=0;fontFamily=Comic Sans MS;fontColor=#FFFFFF;strokeColor=#4C0099;exitX=1;exitY=1;exitDx=0;exitDy=0;entryX=0;entryY=0;entryDx=0;entryDy=0;" parent="1" source="M-MsmWzVihMMCVlR_p8x-12" target="M-MsmWzVihMMCVlR_p8x-17" edge="1">
          <mxGeometry width="50" height="50" relative="1" as="geometry">
            <mxPoint x="830" y="290" as="sourcePoint" />
            <mxPoint x="890" y="290" as="targetPoint" />
          </mxGeometry>
        </mxCell>
        <mxCell id="M-MsmWzVihMMCVlR_p8x-25" value="&lt;pre&gt;&lt;font face=&quot;Comic Sans MS&quot; color=&quot;#ffffff&quot;&gt;CATEGORY&lt;/font&gt;&lt;/pre&gt;" style="rounded=1;whiteSpace=wrap;html=1;fillColor=#FF756F;strokeColor=#d79b00;" parent="1" vertex="1">
          <mxGeometry x="390" y="480" width="80" height="40" as="geometry" />
        </mxCell>
        <mxCell id="M-MsmWzVihMMCVlR_p8x-26" value="choose" style="rhombus;whiteSpace=wrap;html=1;fontFamily=Comic Sans MS;fontColor=#FFFFFF;fillColor=#009999;" parent="1" vertex="1">
          <mxGeometry x="400" y="370" width="60" height="40" as="geometry" />
        </mxCell>
        <mxCell id="M-MsmWzVihMMCVlR_p8x-27" value="" style="endArrow=none;html=1;rounded=0;fontFamily=Comic Sans MS;fontColor=#FFFFFF;strokeColor=#4C0099;entryX=0.5;entryY=1;entryDx=0;entryDy=0;exitX=0.5;exitY=0;exitDx=0;exitDy=0;" parent="1" source="M-MsmWzVihMMCVlR_p8x-26" target="M-MsmWzVihMMCVlR_p8x-1" edge="1">
          <mxGeometry width="50" height="50" relative="1" as="geometry">
            <mxPoint x="430" y="350" as="sourcePoint" />
            <mxPoint x="429.44" y="310" as="targetPoint" />
          </mxGeometry>
        </mxCell>
        <mxCell id="M-MsmWzVihMMCVlR_p8x-28" value="" style="endArrow=none;html=1;rounded=0;fontFamily=Comic Sans MS;fontColor=#FFFFFF;strokeColor=#4C0099;entryX=0.491;entryY=1;entryDx=0;entryDy=0;entryPerimeter=0;" parent="1" target="M-MsmWzVihMMCVlR_p8x-26" edge="1">
          <mxGeometry width="50" height="50" relative="1" as="geometry">
            <mxPoint x="429" y="480" as="sourcePoint" />
            <mxPoint x="429.44" y="420" as="targetPoint" />
          </mxGeometry>
        </mxCell>
        <mxCell id="M-MsmWzVihMMCVlR_p8x-29" value="category&lt;br&gt;id" style="ellipse;whiteSpace=wrap;html=1;fontFamily=Comic Sans MS;fontColor=#FFFFFF;fillColor=#B266FF;" parent="1" vertex="1">
          <mxGeometry x="460" y="430" width="60" height="30" as="geometry" />
        </mxCell>
        <mxCell id="M-MsmWzVihMMCVlR_p8x-30" value="category&lt;br&gt;name" style="ellipse;whiteSpace=wrap;html=1;fontFamily=Comic Sans MS;fontColor=#FFFFFF;fillColor=#B266FF;" parent="1" vertex="1">
          <mxGeometry x="500" y="480" width="60" height="30" as="geometry" />
        </mxCell>
        <mxCell id="M-MsmWzVihMMCVlR_p8x-31" value="category&lt;br&gt;type" style="ellipse;whiteSpace=wrap;html=1;fontFamily=Comic Sans MS;fontColor=#FFFFFF;fillColor=#B266FF;" parent="1" vertex="1">
          <mxGeometry x="310" y="490" width="60" height="30" as="geometry" />
        </mxCell>
        <mxCell id="M-MsmWzVihMMCVlR_p8x-32" value="&lt;pre&gt;&lt;font face=&quot;Comic Sans MS&quot; color=&quot;#ffffff&quot;&gt;PRODUCTS&lt;/font&gt;&lt;/pre&gt;" style="rounded=1;whiteSpace=wrap;html=1;fillColor=#FF756F;strokeColor=#d79b00;" parent="1" vertex="1">
          <mxGeometry x="390" y="660" width="80" height="40" as="geometry" />
        </mxCell>
        <mxCell id="M-MsmWzVihMMCVlR_p8x-33" value="is" style="rhombus;whiteSpace=wrap;html=1;fontFamily=Comic Sans MS;fontColor=#FFFFFF;fillColor=#009999;" parent="1" vertex="1">
          <mxGeometry x="400" y="570" width="60" height="40" as="geometry" />
        </mxCell>
        <mxCell id="M-MsmWzVihMMCVlR_p8x-34" value="" style="endArrow=none;html=1;rounded=0;fontFamily=Comic Sans MS;fontColor=#FFFFFF;strokeColor=#4C0099;entryX=0.5;entryY=1;entryDx=0;entryDy=0;" parent="1" target="M-MsmWzVihMMCVlR_p8x-25" edge="1">
          <mxGeometry width="50" height="50" relative="1" as="geometry">
            <mxPoint x="430" y="570" as="sourcePoint" />
            <mxPoint x="429.41" y="530" as="targetPoint" />
          </mxGeometry>
        </mxCell>
        <mxCell id="M-MsmWzVihMMCVlR_p8x-35" value="" style="endArrow=none;html=1;rounded=0;fontFamily=Comic Sans MS;fontColor=#FFFFFF;strokeColor=#4C0099;entryX=0.5;entryY=1;entryDx=0;entryDy=0;exitX=0.5;exitY=0;exitDx=0;exitDy=0;" parent="1" source="M-MsmWzVihMMCVlR_p8x-32" target="M-MsmWzVihMMCVlR_p8x-33" edge="1">
          <mxGeometry width="50" height="50" relative="1" as="geometry">
            <mxPoint x="500" y="700" as="sourcePoint" />
            <mxPoint x="500" y="630" as="targetPoint" />
          </mxGeometry>
        </mxCell>
        <mxCell id="M-MsmWzVihMMCVlR_p8x-36" value="product_id" style="ellipse;whiteSpace=wrap;html=1;fontFamily=Comic Sans MS;fontColor=#FFFFFF;fillColor=#B266FF;" parent="1" vertex="1">
          <mxGeometry x="480" y="620" width="60" height="30" as="geometry" />
        </mxCell>
        <mxCell id="M-MsmWzVihMMCVlR_p8x-37" value="product&lt;br&gt;name" style="ellipse;whiteSpace=wrap;html=1;fontFamily=Comic Sans MS;fontColor=#FFFFFF;fillColor=#B266FF;" parent="1" vertex="1">
          <mxGeometry x="500" y="665" width="60" height="30" as="geometry" />
        </mxCell>
        <mxCell id="M-MsmWzVihMMCVlR_p8x-38" value="category&lt;br&gt;id" style="ellipse;whiteSpace=wrap;html=1;fontFamily=Comic Sans MS;fontColor=#FFFFFF;fillColor=#B266FF;" parent="1" vertex="1">
          <mxGeometry x="320" y="620" width="60" height="30" as="geometry" />
        </mxCell>
        <mxCell id="M-MsmWzVihMMCVlR_p8x-39" value="FK" style="text;html=1;align=center;verticalAlign=middle;resizable=0;points=[];autosize=1;strokeColor=none;fillColor=none;fontFamily=Helvetica;fontColor=#000000;fontStyle=2" parent="1" vertex="1">
          <mxGeometry x="290" y="620" width="40" height="30" as="geometry" />
        </mxCell>
        <mxCell id="M-MsmWzVihMMCVlR_p8x-40" value="&lt;font color=&quot;#ff0000&quot;&gt;PK&lt;/font&gt;" style="text;html=1;align=center;verticalAlign=middle;resizable=0;points=[];autosize=1;strokeColor=none;fillColor=none;fontFamily=Helvetica;fontColor=#000000;fontStyle=2" parent="1" vertex="1">
          <mxGeometry x="510" y="430" width="40" height="30" as="geometry" />
        </mxCell>
        <mxCell id="M-MsmWzVihMMCVlR_p8x-41" value="&lt;font color=&quot;#ff0000&quot;&gt;PK&lt;/font&gt;" style="text;html=1;align=center;verticalAlign=middle;resizable=0;points=[];autosize=1;strokeColor=none;fillColor=none;fontFamily=Helvetica;fontColor=#000000;fontStyle=2" parent="1" vertex="1">
          <mxGeometry x="530" y="620" width="40" height="30" as="geometry" />
        </mxCell>
        <mxCell id="M-MsmWzVihMMCVlR_p8x-42" value="&lt;pre&gt;&lt;font face=&quot;Comic Sans MS&quot; color=&quot;#ffffff&quot;&gt;SELLER&lt;/font&gt;&lt;/pre&gt;" style="rounded=1;whiteSpace=wrap;html=1;fillColor=#FF756F;strokeColor=#d79b00;" parent="1" vertex="1">
          <mxGeometry x="390" y="850" width="80" height="40" as="geometry" />
        </mxCell>
        <mxCell id="M-MsmWzVihMMCVlR_p8x-43" value="sells" style="rhombus;whiteSpace=wrap;html=1;fontFamily=Comic Sans MS;fontColor=#FFFFFF;fillColor=#009999;" parent="1" vertex="1">
          <mxGeometry x="400" y="750" width="60" height="40" as="geometry" />
        </mxCell>
        <mxCell id="M-MsmWzVihMMCVlR_p8x-44" value="seller&lt;br&gt;id" style="ellipse;whiteSpace=wrap;html=1;fontFamily=Comic Sans MS;fontColor=#FFFFFF;fillColor=#B266FF;" parent="1" vertex="1">
          <mxGeometry x="440" y="920" width="60" height="30" as="geometry" />
        </mxCell>
        <mxCell id="M-MsmWzVihMMCVlR_p8x-46" value="name" style="ellipse;whiteSpace=wrap;html=1;fontFamily=Comic Sans MS;fontColor=#FFFFFF;fillColor=#B266FF;" parent="1" vertex="1">
          <mxGeometry x="360" y="920" width="60" height="30" as="geometry" />
        </mxCell>
        <mxCell id="M-MsmWzVihMMCVlR_p8x-47" value="&lt;font color=&quot;#ff0000&quot;&gt;PK&lt;/font&gt;" style="text;html=1;align=center;verticalAlign=middle;resizable=0;points=[];autosize=1;strokeColor=none;fillColor=none;fontFamily=Helvetica;fontColor=#000000;fontStyle=2" parent="1" vertex="1">
          <mxGeometry x="490" y="920" width="40" height="30" as="geometry" />
        </mxCell>
        <mxCell id="M-MsmWzVihMMCVlR_p8x-48" value="FK" style="text;html=1;align=center;verticalAlign=middle;resizable=0;points=[];autosize=1;strokeColor=none;fillColor=none;fontFamily=Helvetica;fontColor=#000000;fontStyle=2" parent="1" vertex="1">
          <mxGeometry x="280" y="665" width="40" height="30" as="geometry" />
        </mxCell>
        <mxCell id="M-MsmWzVihMMCVlR_p8x-49" value="&lt;pre&gt;&lt;font face=&quot;Comic Sans MS&quot; color=&quot;#ffffff&quot;&gt;PAYMENT&lt;/font&gt;&lt;/pre&gt;" style="rounded=1;whiteSpace=wrap;html=1;fillColor=#FF756F;strokeColor=#d79b00;" parent="1" vertex="1">
          <mxGeometry x="390" y="20" width="80" height="40" as="geometry" />
        </mxCell>
        <mxCell id="M-MsmWzVihMMCVlR_p8x-50" value="pays" style="rhombus;whiteSpace=wrap;html=1;fontFamily=Comic Sans MS;fontColor=#FFFFFF;fillColor=#009999;" parent="1" vertex="1">
          <mxGeometry x="400" y="130" width="60" height="40" as="geometry" />
        </mxCell>
        <mxCell id="M-MsmWzVihMMCVlR_p8x-51" value="" style="endArrow=none;html=1;rounded=0;fontFamily=Comic Sans MS;fontColor=#FFFFFF;strokeColor=#4C0099;entryX=0.5;entryY=1;entryDx=0;entryDy=0;exitX=0.5;exitY=0;exitDx=0;exitDy=0;" parent="1" source="M-MsmWzVihMMCVlR_p8x-43" target="M-MsmWzVihMMCVlR_p8x-32" edge="1">
          <mxGeometry width="50" height="50" relative="1" as="geometry">
            <mxPoint x="440" y="760" as="sourcePoint" />
            <mxPoint x="440" y="710" as="targetPoint" />
          </mxGeometry>
        </mxCell>
        <mxCell id="M-MsmWzVihMMCVlR_p8x-53" value="" style="endArrow=none;html=1;rounded=0;fontFamily=Comic Sans MS;fontColor=#FFFFFF;strokeColor=#4C0099;exitX=0.5;exitY=0;exitDx=0;exitDy=0;entryX=0.5;entryY=1;entryDx=0;entryDy=0;" parent="1" source="M-MsmWzVihMMCVlR_p8x-1" target="M-MsmWzVihMMCVlR_p8x-50" edge="1">
          <mxGeometry width="50" height="50" relative="1" as="geometry">
            <mxPoint x="480" y="290" as="sourcePoint" />
            <mxPoint x="590" y="290" as="targetPoint" />
          </mxGeometry>
        </mxCell>
        <mxCell id="M-MsmWzVihMMCVlR_p8x-54" value="" style="endArrow=none;html=1;rounded=0;fontFamily=Comic Sans MS;fontColor=#FFFFFF;strokeColor=#4C0099;exitX=0.5;exitY=0;exitDx=0;exitDy=0;entryX=0.5;entryY=1;entryDx=0;entryDy=0;" parent="1" source="M-MsmWzVihMMCVlR_p8x-50" target="M-MsmWzVihMMCVlR_p8x-49" edge="1">
          <mxGeometry width="50" height="50" relative="1" as="geometry">
            <mxPoint x="440" y="270" as="sourcePoint" />
            <mxPoint x="440" y="180" as="targetPoint" />
          </mxGeometry>
        </mxCell>
        <mxCell id="M-MsmWzVihMMCVlR_p8x-55" value="payment&lt;br&gt;id" style="ellipse;whiteSpace=wrap;html=1;fontFamily=Comic Sans MS;fontColor=#FFFFFF;fillColor=#B266FF;" parent="1" vertex="1">
          <mxGeometry x="350" y="-30" width="60" height="30" as="geometry" />
        </mxCell>
        <mxCell id="M-MsmWzVihMMCVlR_p8x-56" value="customers&lt;br&gt;id" style="ellipse;whiteSpace=wrap;html=1;fontFamily=Comic Sans MS;fontColor=#FFFFFF;fillColor=#B266FF;" parent="1" vertex="1">
          <mxGeometry x="310" y="25" width="60" height="30" as="geometry" />
        </mxCell>
        <mxCell id="M-MsmWzVihMMCVlR_p8x-57" value="date" style="ellipse;whiteSpace=wrap;html=1;fontFamily=Comic Sans MS;fontColor=#FFFFFF;fillColor=#B266FF;" parent="1" vertex="1">
          <mxGeometry x="400" y="-70" width="60" height="30" as="geometry" />
        </mxCell>
        <mxCell id="M-MsmWzVihMMCVlR_p8x-59" value="&lt;font color=&quot;#ff0000&quot;&gt;PK&lt;/font&gt;" style="text;html=1;align=center;verticalAlign=middle;resizable=0;points=[];autosize=1;strokeColor=none;fillColor=none;fontFamily=Helvetica;fontColor=#000000;fontStyle=2" parent="1" vertex="1">
          <mxGeometry x="320" y="-30" width="40" height="30" as="geometry" />
        </mxCell>
        <mxCell id="M-MsmWzVihMMCVlR_p8x-60" value="FK" style="text;html=1;align=center;verticalAlign=middle;resizable=0;points=[];autosize=1;strokeColor=none;fillColor=none;fontFamily=Helvetica;fontColor=#000000;fontStyle=2" parent="1" vertex="1">
          <mxGeometry x="280" y="25" width="40" height="30" as="geometry" />
        </mxCell>
        <mxCell id="M-MsmWzVihMMCVlR_p8x-62" value="&lt;pre&gt;&lt;font face=&quot;Comic Sans MS&quot; color=&quot;#ffffff&quot;&gt;Transaction&lt;/font&gt;&lt;/pre&gt;&lt;pre&gt;&lt;font face=&quot;Comic Sans MS&quot; color=&quot;#ffffff&quot;&gt;Reports&lt;/font&gt;&lt;/pre&gt;" style="rounded=1;whiteSpace=wrap;html=1;fillColor=#FF756F;strokeColor=#d79b00;" parent="1" vertex="1">
          <mxGeometry x="740" y="20" width="80" height="40" as="geometry" />
        </mxCell>
        <mxCell id="M-MsmWzVihMMCVlR_p8x-69" value="has" style="rhombus;whiteSpace=wrap;html=1;fontFamily=Comic Sans MS;fontColor=#FFFFFF;fillColor=#009999;" parent="1" vertex="1">
          <mxGeometry x="750" y="130" width="60" height="40" as="geometry" />
        </mxCell>
        <mxCell id="M-MsmWzVihMMCVlR_p8x-70" value="" style="endArrow=none;html=1;rounded=0;fontFamily=Comic Sans MS;fontColor=#FFFFFF;strokeColor=#4C0099;entryX=0.5;entryY=1;entryDx=0;entryDy=0;exitX=0.5;exitY=0;exitDx=0;exitDy=0;" parent="1" source="M-MsmWzVihMMCVlR_p8x-69" target="M-MsmWzVihMMCVlR_p8x-62" edge="1">
          <mxGeometry width="50" height="50" relative="1" as="geometry">
            <mxPoint x="680" y="70" as="sourcePoint" />
            <mxPoint x="780" y="60" as="targetPoint" />
          </mxGeometry>
        </mxCell>
        <mxCell id="M-MsmWzVihMMCVlR_p8x-71" value="" style="endArrow=none;html=1;rounded=0;fontFamily=Comic Sans MS;fontColor=#FFFFFF;strokeColor=#4C0099;entryX=0.5;entryY=1;entryDx=0;entryDy=0;exitX=0.5;exitY=0;exitDx=0;exitDy=0;" parent="1" source="M-MsmWzVihMMCVlR_p8x-12" target="M-MsmWzVihMMCVlR_p8x-69" edge="1">
          <mxGeometry width="50" height="50" relative="1" as="geometry">
            <mxPoint x="840" y="220" as="sourcePoint" />
            <mxPoint x="840" y="120" as="targetPoint" />
          </mxGeometry>
        </mxCell>
        <mxCell id="M-MsmWzVihMMCVlR_p8x-72" value="transaction&lt;br&gt;id" style="ellipse;whiteSpace=wrap;html=1;fontFamily=Comic Sans MS;fontColor=#FFFFFF;fillColor=#B266FF;" parent="1" vertex="1">
          <mxGeometry x="680" y="-10" width="60" height="30" as="geometry" />
        </mxCell>
        <mxCell id="M-MsmWzVihMMCVlR_p8x-73" value="order_id" style="ellipse;whiteSpace=wrap;html=1;fontFamily=Comic Sans MS;fontColor=#FFFFFF;fillColor=#B266FF;" parent="1" vertex="1">
          <mxGeometry x="750" y="-40" width="60" height="30" as="geometry" />
        </mxCell>
        <mxCell id="M-MsmWzVihMMCVlR_p8x-74" value="product_id" style="ellipse;whiteSpace=wrap;html=1;fontFamily=Comic Sans MS;fontColor=#FFFFFF;fillColor=#B266FF;" parent="1" vertex="1">
          <mxGeometry x="800" y="190" width="60" height="30" as="geometry" />
        </mxCell>
        <mxCell id="M-MsmWzVihMMCVlR_p8x-75" value="customer_id" style="ellipse;whiteSpace=wrap;html=1;fontFamily=Comic Sans MS;fontColor=#FFFFFF;fillColor=#B266FF;" parent="1" vertex="1">
          <mxGeometry x="830" y="-10" width="60" height="30" as="geometry" />
        </mxCell>
        <mxCell id="7hvklyjwpI8hrcceIS0T-1" value="seller&lt;br&gt;id" style="ellipse;whiteSpace=wrap;html=1;fontFamily=Comic Sans MS;fontColor=#FFFFFF;fillColor=#B266FF;" parent="1" vertex="1">
          <mxGeometry x="310" y="665" width="60" height="30" as="geometry" />
        </mxCell>
        <mxCell id="7hvklyjwpI8hrcceIS0T-2" value="iban" style="ellipse;whiteSpace=wrap;html=1;fontFamily=Comic Sans MS;fontColor=#FFFFFF;fillColor=#B266FF;" parent="1" vertex="1">
          <mxGeometry x="450" y="-30" width="60" height="30" as="geometry" />
        </mxCell>
        <mxCell id="7hvklyjwpI8hrcceIS0T-3" value="CVC" style="ellipse;whiteSpace=wrap;html=1;fontFamily=Comic Sans MS;fontColor=#FFFFFF;fillColor=#B266FF;" parent="1" vertex="1">
          <mxGeometry x="490" y="25" width="60" height="30" as="geometry" />
        </mxCell>
        <mxCell id="7hvklyjwpI8hrcceIS0T-4" value="&lt;pre&gt;&lt;font face=&quot;Comic Sans MS&quot; color=&quot;#ffffff&quot;&gt;DELIVERS&lt;/font&gt;&lt;/pre&gt;" style="rounded=1;whiteSpace=wrap;html=1;fillColor=#FF756F;strokeColor=#d79b00;" parent="1" vertex="1">
          <mxGeometry x="740" y="850" width="80" height="40" as="geometry" />
        </mxCell>
        <mxCell id="7hvklyjwpI8hrcceIS0T-5" value="has" style="rhombus;whiteSpace=wrap;html=1;fontFamily=Comic Sans MS;fontColor=#FFFFFF;fillColor=#009999;" parent="1" vertex="1">
          <mxGeometry x="580" y="850" width="60" height="40" as="geometry" />
        </mxCell>
        <mxCell id="7hvklyjwpI8hrcceIS0T-6" value="" style="endArrow=none;html=1;rounded=0;fontFamily=Comic Sans MS;fontColor=#FFFFFF;strokeColor=#4C0099;exitX=0;exitY=0.5;exitDx=0;exitDy=0;entryX=1;entryY=0.5;entryDx=0;entryDy=0;" parent="1" source="7hvklyjwpI8hrcceIS0T-5" target="M-MsmWzVihMMCVlR_p8x-42" edge="1">
          <mxGeometry width="50" height="50" relative="1" as="geometry">
            <mxPoint x="539.13" y="970" as="sourcePoint" />
            <mxPoint x="539.13" y="910" as="targetPoint" />
          </mxGeometry>
        </mxCell>
        <mxCell id="7hvklyjwpI8hrcceIS0T-7" value="" style="endArrow=none;html=1;rounded=0;fontFamily=Comic Sans MS;fontColor=#FFFFFF;strokeColor=#4C0099;exitX=0;exitY=0.5;exitDx=0;exitDy=0;entryX=1;entryY=0.5;entryDx=0;entryDy=0;" parent="1" source="7hvklyjwpI8hrcceIS0T-4" target="7hvklyjwpI8hrcceIS0T-5" edge="1">
          <mxGeometry width="50" height="50" relative="1" as="geometry">
            <mxPoint x="710" y="910" as="sourcePoint" />
            <mxPoint x="600" y="910" as="targetPoint" />
          </mxGeometry>
        </mxCell>
        <mxCell id="7hvklyjwpI8hrcceIS0T-8" value="deliver&lt;br&gt;id" style="ellipse;whiteSpace=wrap;html=1;fontFamily=Comic Sans MS;fontColor=#FFFFFF;fillColor=#B266FF;" parent="1" vertex="1">
          <mxGeometry x="670" y="890" width="60" height="30" as="geometry" />
        </mxCell>
        <mxCell id="7hvklyjwpI8hrcceIS0T-9" value="seller&lt;br&gt;id" style="ellipse;whiteSpace=wrap;html=1;fontFamily=Comic Sans MS;fontColor=#FFFFFF;fillColor=#B266FF;" parent="1" vertex="1">
          <mxGeometry x="830" y="890" width="60" height="30" as="geometry" />
        </mxCell>
        <mxCell id="7hvklyjwpI8hrcceIS0T-10" value="date" style="ellipse;whiteSpace=wrap;html=1;fontFamily=Comic Sans MS;fontColor=#FFFFFF;fillColor=#B266FF;" parent="1" vertex="1">
          <mxGeometry x="830" y="820" width="60" height="30" as="geometry" />
        </mxCell>
        <mxCell id="7hvklyjwpI8hrcceIS0T-13" value="&lt;pre&gt;&lt;font face=&quot;Comic Sans MS&quot; color=&quot;#ffffff&quot;&gt;with&lt;/font&gt;&lt;/pre&gt;&lt;pre&gt;&lt;font face=&quot;Comic Sans MS&quot; color=&quot;#ffffff&quot;&gt;delivery&lt;/font&gt;&lt;/pre&gt;" style="rounded=1;whiteSpace=wrap;html=1;fillColor=#FF756F;strokeColor=#d79b00;" parent="1" vertex="1">
          <mxGeometry x="630" y="560" width="80" height="40" as="geometry" />
        </mxCell>
        <mxCell id="7hvklyjwpI8hrcceIS0T-14" value="&lt;pre&gt;&lt;font face=&quot;Comic Sans MS&quot; color=&quot;#ffffff&quot;&gt;without&lt;/font&gt;&lt;/pre&gt;&lt;pre&gt;&lt;font face=&quot;Comic Sans MS&quot; color=&quot;#ffffff&quot;&gt;delivery&lt;/font&gt;&lt;/pre&gt;" style="rounded=1;whiteSpace=wrap;html=1;fillColor=#FF756F;strokeColor=#d79b00;" parent="1" vertex="1">
          <mxGeometry x="860" y="560" width="80" height="40" as="geometry" />
        </mxCell>
        <mxCell id="7hvklyjwpI8hrcceIS0T-16" value="" style="triangle;whiteSpace=wrap;html=1;rotation=-90;fillColor=#009999;strokeColor=#36393d;" parent="1" vertex="1">
          <mxGeometry x="650" y="400" width="40" height="60" as="geometry" />
        </mxCell>
        <mxCell id="7hvklyjwpI8hrcceIS0T-18" value="" style="triangle;whiteSpace=wrap;html=1;rotation=-90;fillColor=#009999;strokeColor=#36393d;" parent="1" vertex="1">
          <mxGeometry x="880" y="400" width="40" height="60" as="geometry" />
        </mxCell>
        <mxCell id="7hvklyjwpI8hrcceIS0T-19" value="with" style="text;html=1;align=center;verticalAlign=middle;resizable=0;points=[];autosize=1;strokeColor=none;fillColor=none;strokeWidth=4;fontSize=16;" parent="1" vertex="1">
          <mxGeometry x="645" y="420" width="50" height="30" as="geometry" />
        </mxCell>
        <mxCell id="7hvklyjwpI8hrcceIS0T-21" value="with" style="text;html=1;align=center;verticalAlign=middle;resizable=0;points=[];autosize=1;strokeColor=none;fillColor=none;strokeWidth=4;fontSize=16;" parent="1" vertex="1">
          <mxGeometry x="875" y="420" width="50" height="30" as="geometry" />
        </mxCell>
        <mxCell id="7hvklyjwpI8hrcceIS0T-22" value="" style="endArrow=none;html=1;rounded=0;fontFamily=Comic Sans MS;fontColor=#FFFFFF;strokeColor=#4C0099;exitX=1;exitY=0.5;exitDx=0;exitDy=0;entryX=0.25;entryY=1;entryDx=0;entryDy=0;" parent="1" source="7hvklyjwpI8hrcceIS0T-16" target="M-MsmWzVihMMCVlR_p8x-12" edge="1">
          <mxGeometry width="50" height="50" relative="1" as="geometry">
            <mxPoint x="650" y="360" as="sourcePoint" />
            <mxPoint x="750" y="360" as="targetPoint" />
          </mxGeometry>
        </mxCell>
        <mxCell id="7hvklyjwpI8hrcceIS0T-23" value="" style="endArrow=none;html=1;rounded=0;fontFamily=Comic Sans MS;fontColor=#FFFFFF;strokeColor=#4C0099;exitX=0.5;exitY=0;exitDx=0;exitDy=0;entryX=0.512;entryY=1.11;entryDx=0;entryDy=0;entryPerimeter=0;" parent="1" source="7hvklyjwpI8hrcceIS0T-13" target="7hvklyjwpI8hrcceIS0T-19" edge="1">
          <mxGeometry width="50" height="50" relative="1" as="geometry">
            <mxPoint x="635" y="600" as="sourcePoint" />
            <mxPoint x="705" y="490" as="targetPoint" />
          </mxGeometry>
        </mxCell>
        <mxCell id="7hvklyjwpI8hrcceIS0T-24" value="" style="endArrow=none;html=1;rounded=0;fontFamily=Comic Sans MS;fontColor=#FFFFFF;strokeColor=#4C0099;exitX=1;exitY=0.5;exitDx=0;exitDy=0;entryX=0.75;entryY=1;entryDx=0;entryDy=0;" parent="1" source="7hvklyjwpI8hrcceIS0T-18" target="M-MsmWzVihMMCVlR_p8x-12" edge="1">
          <mxGeometry width="50" height="50" relative="1" as="geometry">
            <mxPoint x="680" y="420" as="sourcePoint" />
            <mxPoint x="770" y="310" as="targetPoint" />
          </mxGeometry>
        </mxCell>
        <mxCell id="7hvklyjwpI8hrcceIS0T-25" value="" style="endArrow=none;html=1;rounded=0;fontFamily=Comic Sans MS;fontColor=#FFFFFF;strokeColor=#4C0099;exitX=0.5;exitY=0;exitDx=0;exitDy=0;entryX=0;entryY=0.5;entryDx=0;entryDy=0;" parent="1" source="7hvklyjwpI8hrcceIS0T-14" target="7hvklyjwpI8hrcceIS0T-18" edge="1">
          <mxGeometry width="50" height="50" relative="1" as="geometry">
            <mxPoint x="875" y="540" as="sourcePoint" />
            <mxPoint x="775" y="430" as="targetPoint" />
          </mxGeometry>
        </mxCell>
        <mxCell id="7hvklyjwpI8hrcceIS0T-27" value="price" style="ellipse;whiteSpace=wrap;html=1;fontFamily=Comic Sans MS;fontColor=#FFFFFF;fillColor=#B266FF;" parent="1" vertex="1">
          <mxGeometry x="480" y="710" width="60" height="30" as="geometry" />
        </mxCell>
        <mxCell id="7hvklyjwpI8hrcceIS0T-34" value="salary" style="ellipse;whiteSpace=wrap;html=1;fontFamily=Comic Sans MS;fontColor=#FFFFFF;fillColor=#B266FF;" parent="1" vertex="1">
          <mxGeometry x="750" y="920" width="60" height="30" as="geometry" />
        </mxCell>
        <mxCell id="7hvklyjwpI8hrcceIS0T-38" value="quantity" style="ellipse;whiteSpace=wrap;html=1;fontFamily=Comic Sans MS;fontColor=#FFFFFF;fillColor=#B266FF;" parent="1" vertex="1">
          <mxGeometry x="320" y="710" width="60" height="30" as="geometry" />
        </mxCell>
        <mxCell id="7hvklyjwpI8hrcceIS0T-39" value="quantity" style="ellipse;whiteSpace=wrap;html=1;fontFamily=Comic Sans MS;fontColor=#FFFFFF;fillColor=#B266FF;" parent="1" vertex="1">
          <mxGeometry x="680" y="235" width="60" height="30" as="geometry" />
        </mxCell>
        <mxCell id="7hvklyjwpI8hrcceIS0T-40" value="Total price" style="ellipse;whiteSpace=wrap;html=1;fontFamily=Comic Sans MS;fontColor=#FFFFFF;fillColor=#B266FF;" parent="1" vertex="1">
          <mxGeometry x="710" y="190" width="60" height="30" as="geometry" />
        </mxCell>
        <mxCell id="7hvklyjwpI8hrcceIS0T-41" value="order_id" style="ellipse;whiteSpace=wrap;html=1;fontFamily=Comic Sans MS;fontColor=#FFFFFF;fillColor=#B266FF;" parent="1" vertex="1">
          <mxGeometry x="670" y="820" width="60" height="30" as="geometry" />
        </mxCell>
        <mxCell id="7hvklyjwpI8hrcceIS0T-42" value="FK" style="text;html=1;align=center;verticalAlign=middle;resizable=0;points=[];autosize=1;strokeColor=none;fillColor=none;fontFamily=Helvetica;fontColor=#000000;fontStyle=2" parent="1" vertex="1">
          <mxGeometry x="640" y="820" width="40" height="30" as="geometry" />
        </mxCell>
        <mxCell id="7hvklyjwpI8hrcceIS0T-43" value="FK" style="text;html=1;align=center;verticalAlign=middle;resizable=0;points=[];autosize=1;strokeColor=none;fillColor=none;fontFamily=Helvetica;fontColor=#000000;fontStyle=2" parent="1" vertex="1">
          <mxGeometry x="850" y="190" width="40" height="30" as="geometry" />
        </mxCell>
        <mxCell id="7hvklyjwpI8hrcceIS0T-44" value="" style="endArrow=none;html=1;rounded=0;fontFamily=Comic Sans MS;fontColor=#FFFFFF;strokeColor=#4C0099;exitX=0;exitY=0.5;exitDx=0;exitDy=0;entryX=1;entryY=0.5;entryDx=0;entryDy=0;" parent="1" source="7hvklyjwpI8hrcceIS0T-3" target="M-MsmWzVihMMCVlR_p8x-49" edge="1">
          <mxGeometry width="50" height="50" relative="1" as="geometry">
            <mxPoint x="480" y="130" as="sourcePoint" />
            <mxPoint x="480" y="60" as="targetPoint" />
          </mxGeometry>
        </mxCell>
        <mxCell id="7hvklyjwpI8hrcceIS0T-45" value="" style="endArrow=none;html=1;rounded=0;fontFamily=Comic Sans MS;fontColor=#FFFFFF;strokeColor=#4C0099;exitX=0.844;exitY=0.033;exitDx=0;exitDy=0;entryX=0.293;entryY=0.933;entryDx=0;entryDy=0;entryPerimeter=0;exitPerimeter=0;" parent="1" source="M-MsmWzVihMMCVlR_p8x-49" target="7hvklyjwpI8hrcceIS0T-2" edge="1">
          <mxGeometry width="50" height="50" relative="1" as="geometry">
            <mxPoint x="490" y="140" as="sourcePoint" />
            <mxPoint x="490" y="70" as="targetPoint" />
          </mxGeometry>
        </mxCell>
        <mxCell id="7hvklyjwpI8hrcceIS0T-46" value="" style="endArrow=none;html=1;rounded=0;fontFamily=Comic Sans MS;fontColor=#FFFFFF;strokeColor=#4C0099;exitX=0.5;exitY=0;exitDx=0;exitDy=0;entryX=0.5;entryY=1;entryDx=0;entryDy=0;" parent="1" source="M-MsmWzVihMMCVlR_p8x-49" target="M-MsmWzVihMMCVlR_p8x-57" edge="1">
          <mxGeometry width="50" height="50" relative="1" as="geometry">
            <mxPoint x="468" y="31" as="sourcePoint" />
            <mxPoint x="478" y="8" as="targetPoint" />
          </mxGeometry>
        </mxCell>
        <mxCell id="7hvklyjwpI8hrcceIS0T-47" value="" style="endArrow=none;html=1;rounded=0;fontFamily=Comic Sans MS;fontColor=#FFFFFF;strokeColor=#4C0099;exitX=0.25;exitY=0;exitDx=0;exitDy=0;entryX=1;entryY=1;entryDx=0;entryDy=0;" parent="1" source="M-MsmWzVihMMCVlR_p8x-49" target="M-MsmWzVihMMCVlR_p8x-55" edge="1">
          <mxGeometry width="50" height="50" relative="1" as="geometry">
            <mxPoint x="440" y="30" as="sourcePoint" />
            <mxPoint x="440" y="-30" as="targetPoint" />
          </mxGeometry>
        </mxCell>
        <mxCell id="7hvklyjwpI8hrcceIS0T-48" value="" style="endArrow=none;html=1;rounded=0;fontFamily=Comic Sans MS;fontColor=#FFFFFF;strokeColor=#4C0099;entryX=1;entryY=0.5;entryDx=0;entryDy=0;" parent="1" target="M-MsmWzVihMMCVlR_p8x-56" edge="1">
          <mxGeometry width="50" height="50" relative="1" as="geometry">
            <mxPoint x="390" y="40" as="sourcePoint" />
            <mxPoint x="412" y="5" as="targetPoint" />
          </mxGeometry>
        </mxCell>
        <mxCell id="7hvklyjwpI8hrcceIS0T-49" value="" style="endArrow=none;html=1;rounded=0;fontFamily=Comic Sans MS;fontColor=#FFFFFF;strokeColor=#4C0099;entryX=0.5;entryY=1;entryDx=0;entryDy=0;exitX=0.5;exitY=0;exitDx=0;exitDy=0;" parent="1" source="M-MsmWzVihMMCVlR_p8x-62" target="M-MsmWzVihMMCVlR_p8x-73" edge="1">
          <mxGeometry width="50" height="50" relative="1" as="geometry">
            <mxPoint x="840" y="130" as="sourcePoint" />
            <mxPoint x="840" y="60" as="targetPoint" />
          </mxGeometry>
        </mxCell>
        <mxCell id="7hvklyjwpI8hrcceIS0T-50" value="" style="endArrow=none;html=1;rounded=0;fontFamily=Comic Sans MS;fontColor=#FFFFFF;strokeColor=#4C0099;entryX=0;entryY=1;entryDx=0;entryDy=0;exitX=1;exitY=0.5;exitDx=0;exitDy=0;" parent="1" source="M-MsmWzVihMMCVlR_p8x-62" target="M-MsmWzVihMMCVlR_p8x-75" edge="1">
          <mxGeometry width="50" height="50" relative="1" as="geometry">
            <mxPoint x="848.89" y="125" as="sourcePoint" />
            <mxPoint x="848.89" y="55" as="targetPoint" />
          </mxGeometry>
        </mxCell>
        <mxCell id="7hvklyjwpI8hrcceIS0T-51" value="" style="endArrow=none;html=1;rounded=0;fontFamily=Comic Sans MS;fontColor=#FFFFFF;strokeColor=#4C0099;entryX=0.5;entryY=1;entryDx=0;entryDy=0;exitX=0;exitY=0.5;exitDx=0;exitDy=0;" parent="1" source="M-MsmWzVihMMCVlR_p8x-62" target="M-MsmWzVihMMCVlR_p8x-72" edge="1">
          <mxGeometry width="50" height="50" relative="1" as="geometry">
            <mxPoint x="830" y="50" as="sourcePoint" />
            <mxPoint x="848" y="25" as="targetPoint" />
          </mxGeometry>
        </mxCell>
        <mxCell id="7hvklyjwpI8hrcceIS0T-52" value="" style="endArrow=none;html=1;rounded=0;fontFamily=Comic Sans MS;fontColor=#FFFFFF;strokeColor=#4C0099;exitX=0.25;exitY=0;exitDx=0;exitDy=0;entryX=0.661;entryY=0.989;entryDx=0;entryDy=0;entryPerimeter=0;" parent="1" source="M-MsmWzVihMMCVlR_p8x-12" target="7hvklyjwpI8hrcceIS0T-40" edge="1">
          <mxGeometry width="50" height="50" relative="1" as="geometry">
            <mxPoint x="680" y="420" as="sourcePoint" />
            <mxPoint x="770" y="310" as="targetPoint" />
          </mxGeometry>
        </mxCell>
        <mxCell id="7hvklyjwpI8hrcceIS0T-53" value="" style="endArrow=none;html=1;rounded=0;fontFamily=Comic Sans MS;fontColor=#FFFFFF;strokeColor=#4C0099;exitX=0;exitY=0;exitDx=0;exitDy=0;entryX=1;entryY=1;entryDx=0;entryDy=0;" parent="1" source="M-MsmWzVihMMCVlR_p8x-12" target="7hvklyjwpI8hrcceIS0T-39" edge="1">
          <mxGeometry width="50" height="50" relative="1" as="geometry">
            <mxPoint x="770" y="270" as="sourcePoint" />
            <mxPoint x="772" y="225" as="targetPoint" />
          </mxGeometry>
        </mxCell>
        <mxCell id="7hvklyjwpI8hrcceIS0T-54" value="" style="endArrow=none;html=1;rounded=0;fontFamily=Comic Sans MS;fontColor=#FFFFFF;strokeColor=#4C0099;entryX=0.5;entryY=1;entryDx=0;entryDy=0;exitX=1;exitY=0;exitDx=0;exitDy=0;" parent="1" source="M-MsmWzVihMMCVlR_p8x-25" target="M-MsmWzVihMMCVlR_p8x-29" edge="1">
          <mxGeometry width="50" height="50" relative="1" as="geometry">
            <mxPoint x="490" y="580" as="sourcePoint" />
            <mxPoint x="490" y="510" as="targetPoint" />
          </mxGeometry>
        </mxCell>
        <mxCell id="7hvklyjwpI8hrcceIS0T-55" value="" style="endArrow=none;html=1;rounded=0;fontFamily=Comic Sans MS;fontColor=#FFFFFF;strokeColor=#4C0099;entryX=0;entryY=0.5;entryDx=0;entryDy=0;exitX=1;exitY=0.5;exitDx=0;exitDy=0;" parent="1" source="M-MsmWzVihMMCVlR_p8x-25" target="M-MsmWzVihMMCVlR_p8x-30" edge="1">
          <mxGeometry width="50" height="50" relative="1" as="geometry">
            <mxPoint x="480" y="490" as="sourcePoint" />
            <mxPoint x="500" y="470" as="targetPoint" />
          </mxGeometry>
        </mxCell>
        <mxCell id="7hvklyjwpI8hrcceIS0T-56" value="" style="endArrow=none;html=1;rounded=0;fontFamily=Comic Sans MS;fontColor=#FFFFFF;strokeColor=#4C0099;entryX=1;entryY=0.5;entryDx=0;entryDy=0;exitX=0;exitY=0.5;exitDx=0;exitDy=0;" parent="1" source="M-MsmWzVihMMCVlR_p8x-25" target="M-MsmWzVihMMCVlR_p8x-31" edge="1">
          <mxGeometry width="50" height="50" relative="1" as="geometry">
            <mxPoint x="439" y="490" as="sourcePoint" />
            <mxPoint x="439" y="420" as="targetPoint" />
          </mxGeometry>
        </mxCell>
        <mxCell id="7hvklyjwpI8hrcceIS0T-59" value="" style="endArrow=none;html=1;rounded=0;fontFamily=Comic Sans MS;fontColor=#FFFFFF;strokeColor=#4C0099;exitX=0;exitY=1;exitDx=0;exitDy=0;entryX=1;entryY=0;entryDx=0;entryDy=0;" parent="1" source="M-MsmWzVihMMCVlR_p8x-36" target="M-MsmWzVihMMCVlR_p8x-32" edge="1">
          <mxGeometry width="50" height="50" relative="1" as="geometry">
            <mxPoint x="600" y="790" as="sourcePoint" />
            <mxPoint x="490" y="790" as="targetPoint" />
          </mxGeometry>
        </mxCell>
        <mxCell id="7hvklyjwpI8hrcceIS0T-60" value="" style="endArrow=none;html=1;rounded=0;fontFamily=Comic Sans MS;fontColor=#FFFFFF;strokeColor=#4C0099;exitX=0;exitY=0.5;exitDx=0;exitDy=0;entryX=1;entryY=0.5;entryDx=0;entryDy=0;" parent="1" source="M-MsmWzVihMMCVlR_p8x-37" target="M-MsmWzVihMMCVlR_p8x-32" edge="1">
          <mxGeometry width="50" height="50" relative="1" as="geometry">
            <mxPoint x="499" y="656" as="sourcePoint" />
            <mxPoint x="480" y="670" as="targetPoint" />
          </mxGeometry>
        </mxCell>
        <mxCell id="7hvklyjwpI8hrcceIS0T-61" value="" style="endArrow=none;html=1;rounded=0;fontFamily=Comic Sans MS;fontColor=#FFFFFF;strokeColor=#4C0099;exitX=0.5;exitY=0;exitDx=0;exitDy=0;entryX=0.5;entryY=1;entryDx=0;entryDy=0;" parent="1" source="M-MsmWzVihMMCVlR_p8x-42" target="M-MsmWzVihMMCVlR_p8x-43" edge="1">
          <mxGeometry width="50" height="50" relative="1" as="geometry">
            <mxPoint x="560" y="827" as="sourcePoint" />
            <mxPoint x="450" y="827" as="targetPoint" />
          </mxGeometry>
        </mxCell>
        <mxCell id="7hvklyjwpI8hrcceIS0T-62" value="" style="endArrow=none;html=1;rounded=0;fontFamily=Comic Sans MS;fontColor=#FFFFFF;strokeColor=#4C0099;exitX=0;exitY=0;exitDx=0;exitDy=0;entryX=1;entryY=1;entryDx=0;entryDy=0;" parent="1" source="7hvklyjwpI8hrcceIS0T-27" target="M-MsmWzVihMMCVlR_p8x-32" edge="1">
          <mxGeometry width="50" height="50" relative="1" as="geometry">
            <mxPoint x="440" y="860" as="sourcePoint" />
            <mxPoint x="440" y="800" as="targetPoint" />
          </mxGeometry>
        </mxCell>
        <mxCell id="7hvklyjwpI8hrcceIS0T-63" value="" style="endArrow=none;html=1;rounded=0;fontFamily=Comic Sans MS;fontColor=#FFFFFF;strokeColor=#4C0099;entryX=1;entryY=1;entryDx=0;entryDy=0;exitX=0;exitY=0;exitDx=0;exitDy=0;" parent="1" source="M-MsmWzVihMMCVlR_p8x-32" target="M-MsmWzVihMMCVlR_p8x-38" edge="1">
          <mxGeometry width="50" height="50" relative="1" as="geometry">
            <mxPoint x="440" y="760" as="sourcePoint" />
            <mxPoint x="440" y="710" as="targetPoint" />
          </mxGeometry>
        </mxCell>
        <mxCell id="7hvklyjwpI8hrcceIS0T-64" value="" style="endArrow=none;html=1;rounded=0;fontFamily=Comic Sans MS;fontColor=#FFFFFF;strokeColor=#4C0099;entryX=1;entryY=0.5;entryDx=0;entryDy=0;exitX=0;exitY=0.5;exitDx=0;exitDy=0;" parent="1" source="M-MsmWzVihMMCVlR_p8x-32" target="7hvklyjwpI8hrcceIS0T-1" edge="1">
          <mxGeometry width="50" height="50" relative="1" as="geometry">
            <mxPoint x="440" y="760" as="sourcePoint" />
            <mxPoint x="440" y="710" as="targetPoint" />
          </mxGeometry>
        </mxCell>
        <mxCell id="7hvklyjwpI8hrcceIS0T-65" value="" style="endArrow=none;html=1;rounded=0;fontFamily=Comic Sans MS;fontColor=#FFFFFF;strokeColor=#4C0099;exitX=0;exitY=1;exitDx=0;exitDy=0;entryX=1;entryY=0;entryDx=0;entryDy=0;" parent="1" source="M-MsmWzVihMMCVlR_p8x-32" target="7hvklyjwpI8hrcceIS0T-38" edge="1">
          <mxGeometry width="50" height="50" relative="1" as="geometry">
            <mxPoint x="380" y="760" as="sourcePoint" />
            <mxPoint x="270" y="760" as="targetPoint" />
          </mxGeometry>
        </mxCell>
        <mxCell id="7hvklyjwpI8hrcceIS0T-66" value="" style="endArrow=none;html=1;rounded=0;fontFamily=Comic Sans MS;fontColor=#FFFFFF;strokeColor=#4C0099;exitX=0.5;exitY=0;exitDx=0;exitDy=0;entryX=0.25;entryY=1;entryDx=0;entryDy=0;" parent="1" source="M-MsmWzVihMMCVlR_p8x-46" target="M-MsmWzVihMMCVlR_p8x-42" edge="1">
          <mxGeometry width="50" height="50" relative="1" as="geometry">
            <mxPoint x="590" y="880" as="sourcePoint" />
            <mxPoint x="480" y="880" as="targetPoint" />
          </mxGeometry>
        </mxCell>
        <mxCell id="7hvklyjwpI8hrcceIS0T-67" value="" style="endArrow=none;html=1;rounded=0;fontFamily=Comic Sans MS;fontColor=#FFFFFF;strokeColor=#4C0099;exitX=0.5;exitY=0;exitDx=0;exitDy=0;entryX=0.75;entryY=1;entryDx=0;entryDy=0;" parent="1" source="M-MsmWzVihMMCVlR_p8x-44" target="M-MsmWzVihMMCVlR_p8x-42" edge="1">
          <mxGeometry width="50" height="50" relative="1" as="geometry">
            <mxPoint x="400" y="930" as="sourcePoint" />
            <mxPoint x="420" y="900" as="targetPoint" />
          </mxGeometry>
        </mxCell>
        <mxCell id="7hvklyjwpI8hrcceIS0T-68" value="" style="endArrow=none;html=1;rounded=0;fontFamily=Comic Sans MS;fontColor=#FFFFFF;strokeColor=#4C0099;exitX=1;exitY=1;exitDx=0;exitDy=0;entryX=0;entryY=0;entryDx=0;entryDy=0;" parent="1" source="7hvklyjwpI8hrcceIS0T-41" target="7hvklyjwpI8hrcceIS0T-4" edge="1">
          <mxGeometry width="50" height="50" relative="1" as="geometry">
            <mxPoint x="750" y="880" as="sourcePoint" />
            <mxPoint x="650" y="880" as="targetPoint" />
          </mxGeometry>
        </mxCell>
        <mxCell id="7hvklyjwpI8hrcceIS0T-69" value="" style="endArrow=none;html=1;rounded=0;fontFamily=Comic Sans MS;fontColor=#FFFFFF;strokeColor=#4C0099;exitX=0;exitY=1;exitDx=0;exitDy=0;entryX=1;entryY=0;entryDx=0;entryDy=0;" parent="1" source="7hvklyjwpI8hrcceIS0T-10" target="7hvklyjwpI8hrcceIS0T-4" edge="1">
          <mxGeometry width="50" height="50" relative="1" as="geometry">
            <mxPoint x="750" y="880" as="sourcePoint" />
            <mxPoint x="650" y="880" as="targetPoint" />
          </mxGeometry>
        </mxCell>
        <mxCell id="7hvklyjwpI8hrcceIS0T-70" value="" style="endArrow=none;html=1;rounded=0;fontFamily=Comic Sans MS;fontColor=#FFFFFF;strokeColor=#4C0099;exitX=0;exitY=0.5;exitDx=0;exitDy=0;entryX=1;entryY=1;entryDx=0;entryDy=0;" parent="1" source="7hvklyjwpI8hrcceIS0T-9" target="7hvklyjwpI8hrcceIS0T-4" edge="1">
          <mxGeometry width="50" height="50" relative="1" as="geometry">
            <mxPoint x="750" y="880" as="sourcePoint" />
            <mxPoint x="650" y="880" as="targetPoint" />
          </mxGeometry>
        </mxCell>
        <mxCell id="7hvklyjwpI8hrcceIS0T-71" value="" style="endArrow=none;html=1;rounded=0;fontFamily=Comic Sans MS;fontColor=#FFFFFF;strokeColor=#4C0099;entryX=1;entryY=0.5;entryDx=0;entryDy=0;exitX=0.141;exitY=1.025;exitDx=0;exitDy=0;exitPerimeter=0;" parent="1" source="7hvklyjwpI8hrcceIS0T-4" target="7hvklyjwpI8hrcceIS0T-8" edge="1">
          <mxGeometry width="50" height="50" relative="1" as="geometry">
            <mxPoint x="750" y="880" as="sourcePoint" />
            <mxPoint x="650" y="880" as="targetPoint" />
          </mxGeometry>
        </mxCell>
        <mxCell id="7hvklyjwpI8hrcceIS0T-73" value="" style="endArrow=none;html=1;rounded=0;fontFamily=Comic Sans MS;fontColor=#FFFFFF;strokeColor=#4C0099;entryX=0.5;entryY=0;entryDx=0;entryDy=0;exitX=0.5;exitY=1;exitDx=0;exitDy=0;" parent="1" source="7hvklyjwpI8hrcceIS0T-4" target="7hvklyjwpI8hrcceIS0T-34" edge="1">
          <mxGeometry width="50" height="50" relative="1" as="geometry">
            <mxPoint x="761" y="901" as="sourcePoint" />
            <mxPoint x="740" y="915" as="targetPoint" />
          </mxGeometry>
        </mxCell>
        <mxCell id="7hvklyjwpI8hrcceIS0T-74" value="&lt;font color=&quot;#ff0000&quot;&gt;PK&lt;/font&gt;" style="text;html=1;align=center;verticalAlign=middle;resizable=0;points=[];autosize=1;strokeColor=none;fillColor=none;fontFamily=Helvetica;fontColor=#000000;fontStyle=2" parent="1" vertex="1">
          <mxGeometry x="650" y="-10" width="40" height="30" as="geometry" />
        </mxCell>
        <mxCell id="7hvklyjwpI8hrcceIS0T-75" value="FK" style="text;html=1;align=center;verticalAlign=middle;resizable=0;points=[];autosize=1;strokeColor=none;fillColor=none;fontFamily=Helvetica;fontColor=#000000;fontStyle=2" parent="1" vertex="1">
          <mxGeometry x="720" y="-40" width="40" height="30" as="geometry" />
        </mxCell>
        <mxCell id="7hvklyjwpI8hrcceIS0T-76" value="FK" style="text;html=1;align=center;verticalAlign=middle;resizable=0;points=[];autosize=1;strokeColor=none;fillColor=none;fontFamily=Helvetica;fontColor=#000000;fontStyle=2" parent="1" vertex="1">
          <mxGeometry x="800" y="-10" width="40" height="30" as="geometry" />
        </mxCell>
        <mxCell id="7hvklyjwpI8hrcceIS0T-77" value="FK" style="text;html=1;align=center;verticalAlign=middle;resizable=0;points=[];autosize=1;strokeColor=none;fillColor=none;fontFamily=Helvetica;fontColor=#000000;fontStyle=2" parent="1" vertex="1">
          <mxGeometry x="880" y="890" width="40" height="30" as="geometry" />
        </mxCell>
        <mxCell id="7hvklyjwpI8hrcceIS0T-78" value="&lt;font color=&quot;#ff0000&quot;&gt;PK&lt;/font&gt;" style="text;html=1;align=center;verticalAlign=middle;resizable=0;points=[];autosize=1;strokeColor=none;fillColor=none;fontFamily=Helvetica;fontColor=#000000;fontStyle=2" parent="1" vertex="1">
          <mxGeometry x="640" y="890" width="40" height="30" as="geometry" />
        </mxCell>
        <mxCell id="txUQg7J6RCstUWfhNbub-1" value="has" style="rhombus;whiteSpace=wrap;html=1;fontFamily=Comic Sans MS;fontColor=#FFFFFF;fillColor=#009999;" vertex="1" parent="1">
          <mxGeometry x="750" y="700" width="60" height="40" as="geometry" />
        </mxCell>
        <mxCell id="txUQg7J6RCstUWfhNbub-2" value="" style="endArrow=none;html=1;rounded=0;fontFamily=Comic Sans MS;fontColor=#FFFFFF;strokeColor=#4C0099;exitX=0.5;exitY=0;exitDx=0;exitDy=0;entryX=0.5;entryY=1;entryDx=0;entryDy=0;" edge="1" parent="1" source="7hvklyjwpI8hrcceIS0T-4" target="txUQg7J6RCstUWfhNbub-1">
          <mxGeometry width="50" height="50" relative="1" as="geometry">
            <mxPoint x="820" y="690" as="sourcePoint" />
            <mxPoint x="710" y="690" as="targetPoint" />
          </mxGeometry>
        </mxCell>
        <mxCell id="txUQg7J6RCstUWfhNbub-3" value="" style="endArrow=none;html=1;rounded=0;fontFamily=Comic Sans MS;fontColor=#FFFFFF;strokeColor=#4C0099;exitX=0.5;exitY=0;exitDx=0;exitDy=0;entryX=1;entryY=0.5;entryDx=0;entryDy=0;" edge="1" parent="1" source="txUQg7J6RCstUWfhNbub-1" target="7hvklyjwpI8hrcceIS0T-13">
          <mxGeometry width="50" height="50" relative="1" as="geometry">
            <mxPoint x="770" y="640" as="sourcePoint" />
            <mxPoint x="770" y="390" as="targetPoint" />
          </mxGeometry>
        </mxCell>
        <mxCell id="txUQg7J6RCstUWfhNbub-4" value="address" style="ellipse;whiteSpace=wrap;html=1;fontFamily=Comic Sans MS;fontColor=#FFFFFF;fillColor=#B266FF;" vertex="1" parent="1">
          <mxGeometry x="640" y="620" width="60" height="30" as="geometry" />
        </mxCell>
        <mxCell id="txUQg7J6RCstUWfhNbub-6" value="deliver&lt;br&gt;id" style="ellipse;whiteSpace=wrap;html=1;fontFamily=Comic Sans MS;fontColor=#FFFFFF;fillColor=#B266FF;" vertex="1" parent="1">
          <mxGeometry x="554" y="565" width="60" height="30" as="geometry" />
        </mxCell>
        <mxCell id="txUQg7J6RCstUWfhNbub-7" value="FK" style="text;html=1;align=center;verticalAlign=middle;resizable=0;points=[];autosize=1;strokeColor=none;fillColor=none;fontFamily=Helvetica;fontColor=#000000;fontStyle=2" vertex="1" parent="1">
          <mxGeometry x="520" y="565" width="40" height="30" as="geometry" />
        </mxCell>
        <mxCell id="txUQg7J6RCstUWfhNbub-8" value="" style="endArrow=none;html=1;rounded=0;fontFamily=Comic Sans MS;fontColor=#FFFFFF;strokeColor=#4C0099;exitX=0.5;exitY=0;exitDx=0;exitDy=0;entryX=0.5;entryY=1;entryDx=0;entryDy=0;" edge="1" parent="1" source="txUQg7J6RCstUWfhNbub-4" target="7hvklyjwpI8hrcceIS0T-13">
          <mxGeometry width="50" height="50" relative="1" as="geometry">
            <mxPoint x="775" y="740" as="sourcePoint" />
            <mxPoint x="705" y="620" as="targetPoint" />
          </mxGeometry>
        </mxCell>
        <mxCell id="txUQg7J6RCstUWfhNbub-9" value="" style="endArrow=none;html=1;rounded=0;fontFamily=Comic Sans MS;fontColor=#FFFFFF;strokeColor=#4C0099;exitX=1;exitY=0.5;exitDx=0;exitDy=0;entryX=0;entryY=0.5;entryDx=0;entryDy=0;" edge="1" parent="1" source="txUQg7J6RCstUWfhNbub-6" target="7hvklyjwpI8hrcceIS0T-13">
          <mxGeometry width="50" height="50" relative="1" as="geometry">
            <mxPoint x="670" y="740" as="sourcePoint" />
            <mxPoint x="600" y="620" as="targetPoint" />
          </mxGeometry>
        </mxCell>
        <mxCell id="txUQg7J6RCstUWfhNbub-10" value="address" style="ellipse;whiteSpace=wrap;html=1;fontFamily=Comic Sans MS;fontColor=#FFFFFF;fillColor=#B266FF;" vertex="1" parent="1">
          <mxGeometry x="960" y="610" width="60" height="30" as="geometry" />
        </mxCell>
        <mxCell id="txUQg7J6RCstUWfhNbub-11" value="" style="endArrow=none;html=1;rounded=0;fontFamily=Comic Sans MS;fontColor=#FFFFFF;strokeColor=#4C0099;exitX=0;exitY=0.5;exitDx=0;exitDy=0;entryX=0.859;entryY=1.025;entryDx=0;entryDy=0;entryPerimeter=0;" edge="1" parent="1" source="txUQg7J6RCstUWfhNbub-10" target="7hvklyjwpI8hrcceIS0T-14">
          <mxGeometry width="50" height="50" relative="1" as="geometry">
            <mxPoint x="938.75" y="750" as="sourcePoint" />
            <mxPoint x="938.75" y="640" as="targetPoint" />
          </mxGeometry>
        </mxCell>
        <mxCell id="txUQg7J6RCstUWfhNbub-12" value="ready time" style="ellipse;whiteSpace=wrap;html=1;fontFamily=Comic Sans MS;fontColor=#FFFFFF;fillColor=#B266FF;" vertex="1" parent="1">
          <mxGeometry x="870" y="630" width="60" height="30" as="geometry" />
        </mxCell>
        <mxCell id="txUQg7J6RCstUWfhNbub-13" value="" style="endArrow=none;html=1;rounded=0;fontFamily=Comic Sans MS;fontColor=#FFFFFF;strokeColor=#4C0099;exitX=0.5;exitY=0;exitDx=0;exitDy=0;entryX=0.5;entryY=1;entryDx=0;entryDy=0;" edge="1" parent="1" source="txUQg7J6RCstUWfhNbub-12" target="7hvklyjwpI8hrcceIS0T-14">
          <mxGeometry width="50" height="50" relative="1" as="geometry">
            <mxPoint x="970" y="635" as="sourcePoint" />
            <mxPoint x="939" y="611" as="targetPoint" />
          </mxGeometry>
        </mxCell>
        <mxCell id="txUQg7J6RCstUWfhNbub-14" value="customers&lt;br&gt;_id" style="ellipse;whiteSpace=wrap;html=1;fontFamily=Comic Sans MS;fontColor=#FFFFFF;fillColor=#B266FF;" vertex="1" parent="1">
          <mxGeometry x="310" y="440" width="60" height="30" as="geometry" />
        </mxCell>
        <mxCell id="txUQg7J6RCstUWfhNbub-15" value="" style="endArrow=none;html=1;rounded=0;fontFamily=Comic Sans MS;fontColor=#FFFFFF;strokeColor=#4C0099;entryX=1;entryY=0.5;entryDx=0;entryDy=0;exitX=0;exitY=0;exitDx=0;exitDy=0;" edge="1" parent="1" source="M-MsmWzVihMMCVlR_p8x-25" target="txUQg7J6RCstUWfhNbub-14">
          <mxGeometry width="50" height="50" relative="1" as="geometry">
            <mxPoint x="480" y="510" as="sourcePoint" />
            <mxPoint x="510" y="505" as="targetPoint" />
          </mxGeometry>
        </mxCell>
        <mxCell id="txUQg7J6RCstUWfhNbub-16" value="FK" style="text;html=1;align=center;verticalAlign=middle;resizable=0;points=[];autosize=1;strokeColor=none;fillColor=none;fontFamily=Helvetica;fontColor=#000000;fontStyle=2" vertex="1" parent="1">
          <mxGeometry x="280" y="440" width="40" height="30" as="geometry" />
        </mxCell>
        <mxCell id="txUQg7J6RCstUWfhNbub-17" value="order_id" style="ellipse;whiteSpace=wrap;html=1;fontFamily=Comic Sans MS;fontColor=#FFFFFF;fillColor=#B266FF;" vertex="1" parent="1">
          <mxGeometry x="740" y="565" width="60" height="30" as="geometry" />
        </mxCell>
        <mxCell id="txUQg7J6RCstUWfhNbub-18" value="" style="endArrow=none;html=1;rounded=0;fontFamily=Comic Sans MS;fontColor=#FFFFFF;strokeColor=#4C0099;exitX=0;exitY=0.5;exitDx=0;exitDy=0;entryX=1;entryY=0.5;entryDx=0;entryDy=0;" edge="1" parent="1" source="txUQg7J6RCstUWfhNbub-17" target="7hvklyjwpI8hrcceIS0T-13">
          <mxGeometry width="50" height="50" relative="1" as="geometry">
            <mxPoint x="728.57" y="557" as="sourcePoint" />
            <mxPoint x="729.57" y="450" as="targetPoint" />
          </mxGeometry>
        </mxCell>
        <mxCell id="txUQg7J6RCstUWfhNbub-19" value="" style="endArrow=none;html=1;rounded=0;fontFamily=Comic Sans MS;fontColor=#FFFFFF;strokeColor=#4C0099;exitX=0;exitY=0.5;exitDx=0;exitDy=0;entryX=0.877;entryY=0.054;entryDx=0;entryDy=0;entryPerimeter=0;" edge="1" parent="1" source="txUQg7J6RCstUWfhNbub-20" target="7hvklyjwpI8hrcceIS0T-14">
          <mxGeometry width="50" height="50" relative="1" as="geometry">
            <mxPoint x="1070" y="530" as="sourcePoint" />
            <mxPoint x="970" y="420" as="targetPoint" />
          </mxGeometry>
        </mxCell>
        <mxCell id="txUQg7J6RCstUWfhNbub-20" value="order_id" style="ellipse;whiteSpace=wrap;html=1;fontFamily=Comic Sans MS;fontColor=#FFFFFF;fillColor=#B266FF;" vertex="1" parent="1">
          <mxGeometry x="970" y="550" width="60" height="30" as="geometry" />
        </mxCell>
        <mxCell id="txUQg7J6RCstUWfhNbub-21" value="FK" style="text;html=1;align=center;verticalAlign=middle;resizable=0;points=[];autosize=1;strokeColor=none;fillColor=none;fontFamily=Helvetica;fontColor=#000000;fontStyle=2" vertex="1" parent="1">
          <mxGeometry x="790" y="565" width="40" height="30" as="geometry" />
        </mxCell>
        <mxCell id="txUQg7J6RCstUWfhNbub-22" value="FK" style="text;html=1;align=center;verticalAlign=middle;resizable=0;points=[];autosize=1;strokeColor=none;fillColor=none;fontFamily=Helvetica;fontColor=#000000;fontStyle=2" vertex="1" parent="1">
          <mxGeometry x="1020" y="550" width="40" height="30" as="geometry" />
        </mxCell>
      </root>
    </mxGraphModel>
  </diagram>
</mxfile>
